<svg xmlns="http://www.w3.org/2000/svg" xmlns:xlink="http://www.w3.org/1999/xlink" width="639.5" height="128" viewBox="0 0 639.5 128"><defs><clipPath id="a"><rect width="639.5" height="128" fill="none"/></clipPath></defs><title>logo</title><g clip-path="url(#a)"><path d="M110.7,29.5h37.6A11.533,11.533,0,0,1,160.2,41V76.3a11.362,11.362,0,0,1-11.7,11.5H121.2a11.527,11.527,0,0,1-11.7-11.7V63.6a11.527,11.527,0,0,1,11.7-11.7h14.5V63.1h-4.3a2.8,2.8,0,0,0-2.8,2.8v5.6a2.862,2.862,0,0,0,2.8,2.8H137a2.82,2.82,0,0,0,2.6-3V48.8c0-3.5-2.3-5.8-5.1-5.8H110.9V29.5Z" fill="#1d3e82"/></g><g clip-path="url(#a)"><path d="M165.6,29.5H228a11.527,11.527,0,0,1,11.7,11.7V88H220.6V47.3c0-1.5-1.2-3.3-2.8-3.3h-4.4V88.1H193.1v-41a3,3,0,0,0-2.8-3.1H186V88.1H165.6Z" fill="#1d3e82"/></g><g clip-path="url(#a)"><path d="M354.2,88H316.6a11.527,11.527,0,0,1-11.7-11.7V41.2a11.527,11.527,0,0,1,11.7-11.7h27.2a11.7,11.7,0,0,1,11.9,11.7v15s0,4.9-2.6,7.1a10.037,10.037,0,0,1-6.4,1.8H330V52.9h4.1a2.718,2.718,0,0,0,2.6-2.6V44a2.933,2.933,0,0,0-2.8-2.8H329a2.8,2.8,0,0,0-2.8,2.8V71.7a2.862,2.862,0,0,0,2.8,2.8h25V88Z" fill="#1d3e82"/></g><g clip-path="url(#a)"><path d="M245.6,14.5h21.9V71.7a2.76,2.76,0,0,0,2.6,2.8h6.8a2.8,2.8,0,0,0,2.8-2.8V46a2.582,2.582,0,0,0-2.6-2.6h-5.6V29.8h15.6c6.6,0,11.9,4.9,11.9,11.5V76.2a11.7,11.7,0,0,1-11.7,11.9H257.6c-5.3,0-11.9-5.1-11.9-11.5l-.1-62.1" fill="#1d3e82"/></g><g clip-path="url(#a)"><path d="M394,43H382.8a2.8,2.8,0,0,0-2.8,2.8v42H360.9V40.9a11.609,11.609,0,0,1,11.7-11.5H394Z" fill="#1d3e82"/></g><g clip-path="url(#a)"><path d="M418.6,14.5V29.7h11V43.2h-11V71.7a2.633,2.633,0,0,0,2.8,2.6h8.2V87.8H409.7a11.74,11.74,0,0,1-11.9-11.9V14.5Z" fill="#1d3e82"/></g><g clip-path="url(#a)"><path d="M479.1,29.5V43H458.7a2.833,2.833,0,0,0-2.8,2.6v2.5a2.76,2.76,0,0,0,2.6,2.8h10.2a11.362,11.362,0,0,1,11.7,11.5V75.9a11.784,11.784,0,0,1-11.5,11.9H435.5V74.1h20.6a2.862,2.862,0,0,0,2.8-2.8V67.2a2.633,2.633,0,0,0-2.8-2.6h-8.9a11.575,11.575,0,0,1-11.7-11.9V40.9A11.362,11.362,0,0,1,447,29.2h32.1v.3Z" fill="#1d3e82"/></g><g clip-path="url(#a)"><path d="M591.6,29.5h36.2A11.484,11.484,0,0,1,639.5,41V87.8H620.4V46.9c0-1.6-1.3-3.3-2.8-3.3h-5.8V87.7H591.5V29.5Z" fill="#1d3e82"/></g><g clip-path="url(#a)"><path d="M528.3,29.5V43H507.9a2.833,2.833,0,0,0-2.8,2.6v2.5a2.76,2.76,0,0,0,2.6,2.8h10.2a11.362,11.362,0,0,1,11.7,11.5V75.9a11.784,11.784,0,0,1-11.5,11.9H484.7V74.1h20.6a2.862,2.862,0,0,0,2.8-2.8V67.2a2.633,2.633,0,0,0-2.8-2.6h-8.9a11.575,11.575,0,0,1-11.7-11.9V40.9a11.362,11.362,0,0,1,11.5-11.7h32.1v.3Z" fill="#1d3e82"/></g><g clip-path="url(#a)"><path d="M101.5,105.6H46.8c-10.5,0-12.8-5.1-12.8-13.5V11.9H52V83.6c-.2,5.6,5.4,11.7,14,11.7h35.7v10.4h-.2Z" fill="#fff"/></g><g clip-path="url(#a)"><path d="M0,0H24.4V94.6c0,12.2,4.9,18.9,20.8,18.9h60.1V128H26C8.9,128,0,117.1,0,101.3V0Z" fill="#e30a50"/></g><g clip-path="url(#a)"><path d="M86.5,72.6h18.8V88H68.2c-5.1,0-7.4-2.5-7.4-5.8V16.6H83.2v53a6.111,6.111,0,0,0,.8,2.5c.7.7,2.5.5,2.5.5" fill="#1d3e82"/></g><g clip-path="url(#a)"><path d="M66.7,91.6c-7.1,0-11.2-4.3-11.2-10.2V8.2H30.3v86c0,8.6,2.5,15,14.3,15h60.6V91.6Zm34.8,14H46.8c-10.5,0-12.8-5.1-12.8-13.5V11.9H52V83.6c-.2,5.6,5.4,11.7,14,11.7h35.7v10.4h-.2Z" fill="#1d3e82"/></g><g clip-path="url(#a)"><path d="M575.3,29.5a11.362,11.362,0,0,1,11.5,11.7V76.3A11.527,11.527,0,0,1,575.1,88h-29a11.362,11.362,0,0,1-11.5-11.7v-35c0-6.8,4.9-11.9,13.7-11.9l27,.1ZM558,74h5.6a2.76,2.76,0,0,0,2.8-2.6v-26a2.8,2.8,0,0,0-2.8-2.8h-5.4a2.734,2.734,0,0,0-2.8,2.8V71.3A2.663,2.663,0,0,0,558,74" fill="#1d3e82"/></g></svg>