<svg xmlns="http://www.w3.org/2000/svg" viewBox="0 0 567.13 172.02"><defs><style>.cls-1{fill:#fe5000;}</style></defs><title>renta_konevuokraamo_logo</title><g id="Layer_2" data-name="Layer 2"><g id="Layer_1-2" data-name="Layer 1"><path class="cls-1" d="M35.34,153.8c0,12.06-3,15-15.11,15H15.11C3,168.81,0,165.86,0,153.8V80.38C0,48.5,19.42,31.62,56.11,31.62h3c10.52,0,13.76,4.55,13.76,17.15v2.94c0,11.79-2.7,13.67-13.76,12.87h-3c-16.45,0-20.77,5.35-20.77,18.48ZM196.17,100c-1.35,12-4.86,14.73-17.54,14.73H110.11v4c0,13.93,10.52,20.37,35.34,20.37a164.49,164.49,0,0,0,32.64-3.76c11.6-2.41,14.3.27,14.3,12.87v2.94c0,11.79-2.43,14.47-14.3,17.42C169.19,171,158.4,172,145.18,172c-48.29,0-70.41-17.68-70.41-58.68V91.91c0-40.2,21-60.29,62.86-60.29q59.09,0,59.08,57.88C196.71,93.25,196.44,96.73,196.17,100ZM110.11,86.28h53.15v-4c0-13.67-8.91-20.36-26.71-20.36-17.54,0-26.44,6.69-26.44,20.36ZM247.24,153.8c0,12.06-3,15-15.11,15H227c-12.14,0-15.1-2.95-15.1-15V85.74c0-35.37,20.77-54.12,61.51-54.12,42.08,0,61,17.68,61,54.12V153.8c0,12.06-3,15-15.11,15h-5.13c-12.14,0-15.1-2.95-15.1-15V85.74c0-15-4.86-21.16-25.63-21.16s-26.17,6.16-26.17,21.16ZM338,53.32c0-10.72,2.69-13.93,13.22-16.08l11.06-2.41,3.23-21.16C366.81,2.68,370.05,0,381.65,0h1.62c11.6,0,14,2.41,14,13.93v20.9h30.75c12.14,0,15.11,3,15.11,15v2.95c0,12.05-3,15-15.11,15H397.3v53.06c0,12.05,5.66,18,17,18a97.41,97.41,0,0,0,18.89-1.61c12.14-2.14,14.84-.8,14.84,11v2.94c0,12.06-3.24,16.62-14.84,19-4.59,1.07-11.06,1.61-18.89,1.61-34.8,0-52.06-17.15-52.06-51.18V67.79H351.44c-10.8,0-13.49-2.68-13.49-13.4Zm229.18,75.56c0,28.94-17.8,43.14-58.54,43.14s-58.54-14.2-58.54-42.33c0-27.87,18.34-41.8,54.76-41.8h27.25V77.71c0-12.87-9.44-16.35-28-16.35A179.29,179.29,0,0,0,480.53,63c-11.87,1.87-15.1-.81-15.1-12.6V49.3c0-11.52,3-14.47,14.56-16.34a182.76,182.76,0,0,1,21.86-1.34c42.35,0,65.28,12.86,65.28,46.09Zm-35.07-14.73H504.28c-12.68,0-19.16,4.82-19.16,14.73,1.08,12.87,9.71,14.2,22.93,13.94,13.76.26,22.66-1.34,24-15.81Z"/></g></g></svg>